<?xml version="1.0" encoding="UTF-8"?>
<svg xmlns="http://www.w3.org/2000/svg" xmlns:xlink="http://www.w3.org/1999/xlink" width="501.68pt" height="423.46pt" viewBox="0 0 501.68 423.46" version="1.1">
<defs>
<clipPath id="clip1">
  <path d="M 325 95 L 501.679688 95 L 501.679688 356 L 325 356 Z M 325 95 "/>
</clipPath>
<clipPath id="clip2">
  <path d="M 195 383 L 308 383 L 308 423.460938 L 195 423.460938 Z M 195 383 "/>
</clipPath>
</defs>
<g id="surface1">
<path style=" stroke:none;fill-rule:evenodd;fill:rgb(13.699341%,12.199402%,12.5%);fill-opacity:1;" d="M 0 95.457031 L 152.144531 95.457031 L 175.777344 240.503906 L 124.617188 288.796875 L 134.632813 312.929688 L 155.484375 312.929688 L 160.757813 355.277344 L 107.296875 355.277344 L 72.582031 271.210938 L 131.585938 219.707031 L 117.691406 140.675781 L 63.144531 140.675781 L 88.644531 202.121094 L 56.5625 232.421875 "/>
<g clip-path="url(#clip1)" clip-rule="nonzero">
<path style=" stroke:none;fill-rule:evenodd;fill:rgb(13.699341%,12.199402%,12.5%);fill-opacity:1;" d="M 501.683594 95.457031 L 349.539063 95.457031 L 325.90625 240.503906 L 377.066406 288.796875 L 367.054688 312.929688 L 346.203125 312.929688 L 340.925781 355.277344 L 394.390625 355.277344 L 429.105469 271.210938 L 370.097656 219.707031 L 383.992188 140.675781 L 438.539063 140.675781 L 413.039063 202.121094 L 445.121094 232.421875 "/>
</g>
<path style=" stroke:none;fill-rule:evenodd;fill:rgb(13.699341%,12.199402%,12.5%);fill-opacity:1;" d="M 148.796875 -0.00390625 L 191.019531 -0.00390625 L 203.171875 79.664063 L 229.757813 79.664063 L 229.757813 -0.00390625 L 271.386719 -0.00390625 L 271.386719 79.664063 L 298.140625 79.664063 L 310.425781 -0.00390625 L 352.886719 -0.00390625 L 333.828125 121.296875 L 168.25 121.296875 "/>
<path style=" stroke:none;fill-rule:evenodd;fill:rgb(13.699341%,12.199402%,12.5%);fill-opacity:1;" d="M 171.359375 140.675781 L 330.78125 140.675781 L 319.277344 213.882813 L 277.445313 213.882813 L 282.871094 178.714844 L 218.273438 178.714844 L 223.636719 213.882813 L 269.183594 213.882813 L 262.265625 256.945313 L 230.203125 256.945313 L 241.476563 330.871094 L 259.410156 330.871094 L 268.261719 273.453125 L 309.917969 273.453125 L 294.351563 372.5 L 208.539063 372.5 "/>
<g clip-path="url(#clip2)" clip-rule="nonzero">
<path style=" stroke:none;fill-rule:evenodd;fill:rgb(13.699341%,12.199402%,12.5%);fill-opacity:1;" d="M 210.378906 383.984375 L 292.546875 383.984375 L 307.273438 423.460938 L 195.664063 423.460938 Z M 210.378906 383.984375 "/>
</g>
</g>
</svg>
